Coordinates
version=1
nRows=22
nColumns=24
inDegrees=yes

Units are S.I. units (second, meters, Newtons, ...)
Angles are in degrees.

endheader
time	pelvis_tilt	pelvis_list	pelvis_rotation	pelvis_tx	pelvis_ty	pelvis_tz	hip_flexion_r	hip_adduction_r	hip_rotation_r	knee_angle_r	ankle_angle_r	subtalar_angle_r	mtp_angle_r	hip_flexion_l	hip_adduction_l	hip_rotation_l	knee_angle_l	ankle_angle_l	subtalar_angle_l	mtp_angle_l	lumbar_extension	lumbar_bending	lumbar_rotation
      0.68383333	      3.44906345	     -2.57964398	      4.59707388	     -0.45430709	      0.90917811	      0.33847351	      9.86371615	      8.60013675	     -2.38387868	    -26.13856344	     15.71749499	     -1.61363760	      0.61678516	     10.55466264	     -6.52068496	     -4.75602640	    -75.06321128	      0.67625413	     -9.10243092	      2.02463040	    -12.70327593	      4.60638852	     -0.45433958
      0.68800000	      3.28723070	     -2.42133439	      4.57742204	     -0.44917300	      0.91017929	      0.33862987	      9.39187596	      8.45370847	     -2.32870871	    -25.60762271	     15.73503814	     -1.52105257	      0.62383151	     11.52697659	     -6.21206312	     -4.68526453	    -75.16206285	      0.97767228	     -9.04605632	      2.01965661	    -12.58111216	      4.41846287	     -0.29797280
      0.69216667	      3.17894010	     -2.24353331	      4.52458406	     -0.44394935	      0.91129349	      0.33882278	      8.82711522	      8.29588932	     -2.22982070	    -25.02221834	     15.78758876	     -1.41903228	      0.62938534	     12.38544553	     -5.89394011	     -4.67289757	    -75.12913882	      1.21974039	     -8.99371755	      2.02243203	    -12.47879930	      4.20381685	     -0.19501759
      0.69633333	      3.04641928	     -2.06793989	      4.46683840	     -0.43878350	      0.91233230	      0.33900636	      8.30848789	      8.13343059	     -2.14423777	    -24.46287576	     15.78373406	     -1.31846715	      0.63909315	     13.26459754	     -5.55968685	     -4.63971538	    -75.03830497	      1.51799897	     -8.85204822	      2.03258533	    -12.39176207	      3.98663213	     -0.00736286
      0.70050000	      2.95115331	     -1.88597902	      4.39200297	     -0.43352802	      0.91343710	      0.33921522	      7.71856258	      7.96993735	     -2.03582308	    -23.85427571	     15.82036299	     -1.20633294	      0.64524601	     14.06015082	     -5.23175324	     -4.64799156	    -74.83680050	      1.74865556	     -8.75929921	      2.04336506	    -12.30144850	      3.76446345	      0.09779722
      0.70466667	      2.86274408	     -1.69529976	      4.30481972	     -0.42831368	      0.91452434	      0.33942128	      7.13290890	      7.79157445	     -1.93820326	    -23.25875271	     15.78249095	     -1.09408840	      0.65717189	     14.82783474	     -4.88268717	     -4.64746218	    -74.56293791	      2.05017655	     -8.54055524	      2.06991017	    -12.26229671	      3.52647431	      0.31042864
      0.70883333	      2.80187115	     -1.50935565	      4.20178887	     -0.42305989	      0.91563673	      0.33965750	      6.50018403	      7.62218003	     -1.82045651	    -22.62931125	     15.76526478	     -0.98300796	      0.67233402	     15.53421189	     -4.55181438	     -4.67617371	    -74.20093789	      2.31357376	     -8.34377882	      2.10463155	    -12.23364958	      3.29372472	      0.50910127
      0.71300000	      2.75224000	     -1.32060170	      4.08954223	     -0.41778959	      0.91674572	      0.33989733	      5.85155574	      7.44757430	     -1.70524901	    -21.98982391	     15.73779494	     -0.86348595	      0.68746154	     16.20103186	     -4.21784281	     -4.71222346	    -73.75614896	      2.56249889	     -8.14958484	      2.14368164	    -12.21475381	      3.05763106	      0.68506241
      0.71716667	      2.72882884	     -1.12868803	      3.96701659	     -0.41251884	      0.91785729	      0.34014858	      5.16957827	      7.26877953	     -1.58541709	    -21.33731816	     15.69477633	     -0.74086415	      0.70526729	     16.81520814	     -3.88520591	     -4.76041407	    -73.24062769	      2.81701263	     -7.92682431	      2.19271550	    -12.22992937	      2.81868763	      0.87701740
      0.72133333	      2.71794205	     -0.93715743	      3.83321827	     -0.40723339	      0.91895826	      0.34040797	      4.47072491	      7.08770527	     -1.46321148	    -20.67498095	     15.64592354	     -0.61472748	      0.72406086	     17.38814433	     -3.55780582	     -4.82111891	    -72.64745433	      3.05906400	     -7.70588276	      2.24630043	    -12.25472761	      2.57928051	      1.06568397
      0.72550000	      2.75337668	     -0.76353991	      3.69462610	     -0.40192509	      0.92007712	      0.34070786	      3.70377677	      6.93368562	     -1.32114828	    -19.97211262	     15.62217770	     -0.51078999	      0.75852301	     17.88783681	     -3.26858375	     -4.89516732	    -71.99190270	      3.30227403	     -7.47062696	      2.33530341	    -12.33009839	      2.35532783	      1.31562215
      0.72966667	      2.77676507	     -0.57253073	      3.54484693	     -0.39663115	      0.92114501	      0.34099261	      2.96314670	      6.75028930	     -1.19504416	    -19.29169484	     15.55459260	     -0.39023826	      0.79219201	     18.37511103	     -2.95194985	     -4.97297630	    -71.26098651	      3.53100879	     -7.25128983	      2.42576976	    -12.39263084	      2.11247126	      1.51245012
      0.73383333	      2.81868381	     -0.38540724	      3.38582157	     -0.39133350	      0.92218853	      0.34128952	      2.20129372	      6.56890259	     -1.06614204	    -18.60377955	     15.47812743	     -0.26589702	      0.82981976	     18.81888140	     -2.64689634	     -5.06152560	    -70.46603753	      3.75508042	     -7.03648084	      2.52461982	    -12.47505354	      1.87270522	      1.71189285
      0.73800000	      2.87184585	     -0.20036760	      3.22024436	     -0.38603967	      0.92319461	      0.34159129	      1.43033153	      6.38624457	     -0.93797351	    -17.91640320	     15.39959572	     -0.13735397	      0.87209913	     19.22793601	     -2.34742508	     -5.15423953	    -69.60886632	      3.96966210	     -6.82913945	      2.63128051	    -12.56829462	      1.63702628	      1.91360239
      0.74216667	      2.93408419	     -0.01474018	      3.04910982	     -0.38075093	      0.92415372	      0.34190488	      0.65327298	      6.19943631	     -0.81415902	    -17.23210062	     15.32418756	     -0.00986953	      0.91346688	     19.60645785	     -2.05294079	     -5.25502569	    -68.69322660	      4.17136906	     -6.63752270	      2.73200740	    -12.67190008	      1.39180002	      2.10208675
      0.74633333	      3.00688924	      0.16373834	      2.87151385	     -0.37546446	      0.92506827	      0.34222102	     -0.13228071	      6.01654719	     -0.68812892	    -16.54771137	     15.23959232	      0.11963179	      0.95823048	     19.95177646	     -1.77009442	     -5.35829825	    -67.71940069	      4.36616728	     -6.45542606	      2.83565808	    -12.78630071	      1.15991160	      2.29953022
      0.75050000	      3.08613826	      0.34131816	      2.68916388	     -0.37018885	      0.92592176	      0.34254448	     -0.91753183	      5.83156513	     -0.56542803	    -15.87361500	     15.16399846	      0.24661454	      1.00056492	     20.27145034	     -1.49359485	     -5.46797588	    -66.69280591	      4.54469451	     -6.29164211	      2.92904878	    -12.90898336	      0.92120292	      2.48849981
      0.75466667	      3.16720924	      0.51299095	      2.50199190	     -0.36492815	      0.92671221	      0.34286974	     -1.69723530	      5.64841011	     -0.44234125	    -15.20724503	     15.07951816	      0.37840820	      1.04705397	     20.56931937	     -1.22376204	     -5.57507543	    -65.61116725	      4.71333882	     -6.15097572	      3.02419794	    -13.03158865	      0.69469288	      2.68266012
      0.75883333	      3.25180883	      0.67849868	      2.31314719	     -0.35967159	      0.92743336	      0.34319311	     -2.47443104	      5.46762000	     -0.32640913	    -14.54985640	     15.00368489	      0.51108954	      1.09368359	     20.84534822	     -0.96562038	     -5.68563634	    -64.48088483	      4.86413741	     -6.02495970	      3.11185319	    -13.15590664	      0.47125039	      2.86796181
      0.76300000	      3.31185082	      0.85152619	      2.11215141	     -0.35444390	      0.92805117	      0.34351714	     -3.19675192	      5.26881124	     -0.22700023	    -13.94306903	     14.90466720	      0.65416310	      1.12504357	     21.12642292	     -0.69844561	     -5.80008934	    -63.29161556	      5.00108922	     -5.91274588	      3.16865970	    -13.24894881	      0.24397444	      3.01698839
      0.76716667	      3.39607284	      1.00473066	      1.91890569	     -0.34920657	      0.92862121	      0.34383938	     -3.95781355	      5.09243670	     -0.12443690	    -13.30745472	     14.83762230	      0.79898745	      1.15865397	     21.36651900	     -0.45899579	     -5.90816806	    -62.06541430	      5.11844947	     -5.83514092	      3.22178445	    -13.37367551	      0.02466755	      3.19119655
      0.77133333	      3.49620330	      1.13294191	      1.73882050	     -0.34397689	      0.92912128	      0.34415117	     -4.74091955	      4.94501050	     -0.01557273	    -12.65913221	     14.81260804	      0.93019131	      1.20883202	     21.57895355	     -0.24773499	     -5.99810075	    -60.80779028	      5.21192609	     -5.79534176	      3.28781753	    -13.51594242	     -0.15491465	      3.40226762
